<svg width="367" height="367" viewBox="0 0 367 367" fill="none" xmlns="http://www.w3.org/2000/svg">
<path d="M161.04 0.088114C159.21 0.210114 157.441 0.576114 157.075 0.820114C156.77 1.12511 154.33 1.55211 151.768 1.79611C149.145 2.04011 147.01 2.46711 147.01 2.77211C147.01 3.07711 146.278 3.32111 145.363 3.32111C143.472 3.32111 136.03 5.09011 135.115 5.76111C134.81 6.00511 134.017 6.12711 133.468 6.06611C132.858 5.94411 132.37 6.06611 132.37 6.37111C132.37 6.61511 131.15 7.04211 129.625 7.22511C128.1 7.46911 126.88 7.83511 126.88 8.07911C126.88 8.32311 126.27 8.56711 125.538 8.62811C124.867 8.68911 124.074 8.99411 123.891 9.36011C123.647 9.66511 122 10.1531 120.17 10.3971C118.34 10.5801 116.327 11.1901 115.778 11.7391C115.168 12.2271 114.68 12.4711 114.68 12.2271C114.68 11.9831 114.07 12.2271 113.338 12.7151C112.606 13.2641 111.508 13.6911 110.898 13.6911C110.349 13.6911 109.434 14.1791 108.824 14.7281C108.214 15.3381 107.604 15.7651 107.421 15.6431C106.933 15.3991 102.358 17.4731 101.504 18.2661C101.138 18.6321 98.393 20.1571 95.404 21.6211C92.415 23.1461 89.914 24.5491 89.792 24.7931C89.67 25.0981 89.243 25.2811 88.816 25.2811C88.389 25.2811 87.413 25.8301 86.62 26.5011C85.827 27.1721 84.851 27.7211 84.363 27.7211C83.936 27.7211 83.57 27.9651 83.57 28.3311C83.57 28.6361 83.204 28.9411 82.838 28.9411C82.411 28.9411 81.435 29.6121 80.642 30.4661C79.849 31.2591 78.141 32.4181 76.86 33.0281C75.518 33.6381 74.42 34.4921 74.42 34.8581C74.42 35.2851 73.749 35.7731 72.895 36.0171C72.041 36.2001 71.37 36.6271 71.37 36.9321C71.37 37.2371 71.065 37.4811 70.699 37.4811C70.333 37.4811 69.174 38.4571 68.198 39.6161C67.161 40.7751 66.124 41.5681 65.819 41.4461C65.575 41.2631 64.66 41.9341 63.867 42.9711C63.013 43.9471 62.037 44.8011 61.671 44.8011C61.305 44.8011 61 45.2281 61 45.7161C61 46.2041 60.573 46.6311 60.085 46.6311C59.597 46.6311 58.865 47.1801 58.438 47.8511C58.011 48.5221 57.34 49.0711 56.913 49.0711C56.486 49.0711 56.12 49.3151 56.12 49.5591C56.12 49.8031 54.046 52.2431 51.545 54.8661C49.044 57.5501 46.97 59.9291 46.97 60.2341C46.97 60.4781 46.726 60.5391 46.36 60.3561C46.055 60.1731 45.75 60.2341 45.75 60.6001C45.75 61.2101 44.469 62.7961 40.138 67.3711C38.857 68.7131 37.82 70.2381 37.82 70.7261C37.82 71.2141 37.454 71.6411 36.966 71.6411C36.478 71.6411 35.929 72.4951 35.685 73.4711C35.441 74.5081 35.014 75.1791 34.709 74.9351C34.404 74.7521 34.16 74.9961 34.16 75.4231C34.16 75.8501 33.306 77.0091 32.33 77.9851C31.293 78.9611 30.5 80.0591 30.5 80.4861C30.5 80.8521 29.707 82.0721 28.67 83.2311C27.694 84.3901 26.901 85.9761 26.84 86.7691C26.84 87.5011 26.413 88.2941 25.925 88.4771C25.437 88.7211 25.01 89.0871 25.01 89.3921C25.01 89.6971 24.461 90.4901 23.79 91.1611C23.119 91.8321 22.753 92.7471 22.936 93.2961C23.18 93.7841 23.058 94.2111 22.753 94.2111C22.204 94.2111 20.557 96.9561 20.496 98.0541C20.435 98.2981 20.191 98.7251 19.825 98.9691C19.52 99.2131 19.154 99.8231 19.032 100.311C18.91 100.799 18.483 101.653 17.995 102.141C17.568 102.629 17.019 103.727 16.775 104.52C16.531 105.374 15.677 107.265 14.884 108.729C14.091 110.254 13.42 112.084 13.42 112.816C13.42 113.609 12.993 114.341 12.505 114.585C11.895 114.768 11.59 115.744 11.59 117.391C11.59 118.733 11.346 119.831 10.98 119.831C10.675 119.831 10.37 120.258 10.37 120.746C10.37 121.234 9.577 123.674 8.54 126.236C7.503 128.798 6.71 131.543 6.71 132.336C6.71 133.19 6.466 133.861 6.222 133.861C5.917 133.861 5.673 134.227 5.612 134.593C5.368 137.582 4.636 140.571 4.209 140.571C3.904 140.571 3.721 140.754 3.782 140.998C3.965 141.791 2.928 148.135 2.562 148.806C2.074 149.599 1.952 150.209 1.464 155.516C1.22 157.834 0.793 159.969 0.488 160.152C0.122 160.396 0.183 160.701 0.671 160.884C1.281 161.128 1.281 161.25 0.793 161.25C0.183 161.311 0 166.008 0 182.661C0 199.314 0.183 204.011 0.793 204.011C1.281 204.011 1.22 204.255 0.61 204.621C0 204.987 -0.061 205.231 0.488 205.231C0.915 205.231 1.22 206.207 1.281 207.793C1.281 209.257 1.525 211.636 1.83 213.161C3.05 219.2 3.66 222.677 3.782 223.958C3.843 224.751 4.087 225.361 4.331 225.361C4.636 225.361 5.368 228.716 5.612 231.278C5.673 231.705 5.917 232.071 6.222 232.071C6.466 232.071 6.71 232.62 6.71 233.23C6.71 233.901 6.954 234.572 7.259 234.816C7.625 234.999 7.869 235.609 7.869 236.219C7.93 238.232 8.662 241.221 9.15 241.221C9.455 241.221 9.821 242.319 10.065 243.661C10.309 245.003 10.736 246.223 11.041 246.467C11.346 246.65 11.59 247.565 11.59 248.541C11.59 249.456 12.017 250.371 12.505 250.615C12.993 250.798 13.42 251.591 13.42 252.445C13.42 253.238 14.274 255.678 15.311 257.752C16.348 259.887 17.629 262.632 18.178 263.791C18.727 264.95 19.337 266.048 19.52 266.231C19.703 266.414 20.618 268.183 21.655 270.196C22.631 272.209 23.729 274.039 24.156 274.283C24.522 274.527 25.071 275.442 25.254 276.296C25.498 277.15 25.925 277.821 26.23 277.821C26.596 277.821 26.84 278.37 26.84 278.98C26.84 279.651 27.267 280.566 27.755 281.115C28.243 281.603 28.67 282.213 28.67 282.518C28.67 282.762 29.524 283.982 30.5 285.141C31.476 286.3 32.574 287.581 32.879 287.947C33.184 288.313 33.611 289.167 33.794 289.838C34.038 290.57 34.587 291.302 35.075 291.485C35.563 291.668 35.99 292.217 35.99 292.766C35.99 293.254 36.417 293.681 36.905 293.681C37.393 293.681 37.82 294.23 37.82 294.901C37.82 295.572 38.003 296.121 38.308 296.121C38.552 296.121 39.284 296.914 39.955 297.89C40.565 298.866 41.358 299.537 41.602 299.415C41.846 299.232 42.09 299.476 42.09 299.964C42.09 301.184 58.743 318.691 59.963 318.691C60.085 318.691 62.159 320.582 64.538 322.839C66.917 325.096 70.089 327.78 71.614 328.756C73.139 329.732 74.42 330.769 74.42 331.074C74.42 331.318 75.335 331.989 76.433 332.477C79.056 333.636 80.642 334.673 81.801 335.893C82.35 336.503 83.082 336.991 83.448 336.991C83.814 336.991 84.363 337.357 84.607 337.723C85.095 338.516 89.487 340.834 91.683 341.505C92.293 341.688 92.659 342.115 92.415 342.42C92.232 342.725 92.72 343.213 93.452 343.396C94.245 343.64 95.282 344.189 95.77 344.616C96.258 345.043 97.539 345.592 98.637 345.836C99.674 346.019 100.894 346.629 101.321 347.117C101.687 347.605 102.419 347.971 102.846 347.971C103.334 347.971 103.7 348.215 103.7 348.581C103.7 348.886 104.005 349.191 104.371 349.191C104.981 349.191 111.691 351.997 115.534 353.827C116.51 354.315 118.096 354.681 119.072 354.681C120.048 354.681 120.963 355.047 121.146 355.596C121.39 356.084 122.244 356.511 123.22 356.511C124.196 356.511 126.209 357.06 127.734 357.731C129.259 358.341 130.54 358.707 130.54 358.524C130.54 358.28 130.845 358.402 131.272 358.829C131.699 359.256 132.919 359.561 133.956 359.561C135.054 359.561 136.152 359.805 136.335 360.171C136.518 360.476 138.043 360.903 139.69 361.147C141.398 361.391 142.74 361.757 142.74 362.062C142.74 362.367 142.923 362.55 143.228 362.489C144.265 362.306 151.28 363.404 151.28 363.831C151.28 364.014 151.646 364.258 152.073 364.258C156.221 364.38 163.846 365.295 163.968 365.722C164.09 366.027 172.691 366.271 183.061 366.271C197.701 366.271 201.91 366.088 201.91 365.478C201.91 364.99 202.154 365.051 202.52 365.661C202.825 366.149 203.13 366.271 203.13 365.905C203.13 365.295 213.256 363.953 214.903 364.319C215.147 364.38 215.33 364.197 215.33 363.892C215.33 363.587 217.038 363.099 219.173 362.855C223.26 362.367 223.138 362.367 224.48 361.879C225.639 361.391 230.153 360.232 233.447 359.561C235.887 359.012 236.558 358.768 239.547 357.243C240.34 356.816 241.926 356.511 243.085 356.511C244.427 356.511 245.403 356.145 245.586 355.596C245.83 355.047 246.745 354.681 248.026 354.681C249.185 354.681 250.1 354.376 250.1 354.01C250.1 353.705 250.405 353.583 250.71 353.766C251.076 353.949 251.32 353.827 251.32 353.522C251.32 353.156 251.991 352.851 252.784 352.851C253.577 352.851 254.553 352.424 254.98 351.936C255.407 351.448 256.078 351.021 256.505 351.021C257.481 351.021 260.531 349.618 264.618 347.361C266.387 346.324 268.461 345.409 269.132 345.287C269.864 345.226 270.596 344.799 270.718 344.433C270.84 344.006 271.267 343.701 271.694 343.701C272.121 343.701 272.975 343.152 273.585 342.481C274.195 341.81 275.293 341.261 276.086 341.261C276.879 341.261 277.672 340.956 277.855 340.651C278.099 340.285 279.197 339.614 280.356 339.126C281.515 338.638 282.43 337.967 282.43 337.662C282.43 337.296 282.735 336.991 283.04 336.991C283.406 336.991 284.199 336.503 284.87 335.893C285.541 335.344 286.639 334.368 287.31 333.819C287.981 333.209 289.201 332.599 290.055 332.355C290.909 332.172 291.58 331.623 291.58 331.135C291.58 330.647 291.946 330.281 292.373 330.281C292.861 330.281 294.386 329.183 295.911 327.841C297.375 326.499 298.778 325.401 299.022 325.401C299.266 325.401 300.303 324.608 301.34 323.571C302.377 322.595 303.475 321.741 303.841 321.741C304.207 321.741 304.268 321.436 304.085 321.131C303.902 320.765 304.024 320.521 304.329 320.521C304.695 320.521 305.732 319.728 306.647 318.691C307.501 317.715 308.477 316.861 308.721 316.861C309.331 316.861 317.81 308.321 319.823 305.759C320.555 304.783 322.08 303.075 323.178 301.916C324.215 300.818 325.13 299.598 325.13 299.293C325.13 298.927 325.801 298.134 326.655 297.463C327.509 296.792 328.18 295.999 328.18 295.694C328.18 295.389 329.156 294.23 330.315 293.071C331.474 291.912 332.45 290.753 332.45 290.448C332.45 290.204 333.121 289.045 333.975 287.947C334.829 286.849 335.5 285.629 335.5 285.263C335.5 284.836 335.744 284.531 336.049 284.531C336.354 284.531 336.842 283.921 337.025 283.189C337.269 282.518 338.123 281.298 338.916 280.566C339.709 279.834 340.38 278.797 340.38 278.248C340.38 277.699 340.807 276.845 341.295 276.357C341.844 275.808 342.82 274.161 343.491 272.636C344.162 271.111 344.955 269.891 345.26 269.891C345.626 269.891 345.87 269.037 345.87 268.061C345.87 266.841 346.175 266.231 346.785 266.231C347.273 266.231 347.7 265.804 347.7 265.255C347.7 264.706 349.103 261.351 350.811 257.813C352.519 254.214 354.288 250.432 354.776 249.456C355.264 248.419 355.813 246.711 355.996 245.613C356.24 244.576 356.606 243.661 356.911 243.661C357.216 243.661 357.46 242.441 357.46 240.916C357.46 239.025 357.704 238.232 358.253 238.354C358.741 238.415 359.046 237.5 359.168 235.731C359.29 234.267 359.595 232.742 359.9 232.376C360.144 232.071 360.571 230.546 360.815 229.021C361.059 227.496 361.486 225.971 361.791 225.605C362.096 225.239 362.462 223.348 362.706 221.335C362.95 219.383 363.316 217.614 363.621 217.431C363.865 217.248 364.231 214.93 364.475 212.246C364.719 209.562 365.207 207 365.634 206.512C366.183 205.78 366.122 205.719 365.39 206.146C364.597 206.634 364.597 206.573 365.39 205.536C366.183 204.621 366.305 201.083 366.305 182.234C366.305 166.374 366.122 159.908 365.634 159.603C365.085 159.298 363.987 151.551 364.048 148.684C364.048 148.379 363.865 147.891 363.56 147.586C363.255 147.22 362.828 145.329 362.645 143.316C362.401 141.303 362.035 139.534 361.791 139.351C361.242 138.985 359.9 133.8 359.473 130.506C359.29 129.164 358.741 127.822 358.314 127.578C357.826 127.334 357.46 126.175 357.46 125.016C357.46 123.857 357.216 122.82 356.911 122.637C356.606 122.393 356.179 121.173 355.935 119.831C355.691 118.489 355.325 117.391 355.02 117.391C354.776 117.391 354.41 116.354 354.166 115.012C353.983 113.731 353.373 112.328 352.885 111.901C352.397 111.474 351.97 110.62 351.97 110.01C351.97 109.339 351.726 108.851 351.482 108.851C351.238 108.851 350.506 107.387 349.835 105.618C349.225 103.91 348.493 102.263 348.188 102.08C347.883 101.897 347.578 101.165 347.517 100.433C347.517 99.7011 347.09 98.9691 346.663 98.8471C346.236 98.6641 345.87 97.9931 345.87 97.3221C345.87 96.7121 345.443 96.0411 344.955 95.7971C344.467 95.6141 344.04 94.8211 344.04 94.0281C344.04 93.1741 343.613 92.1981 343.125 91.7711C342.637 91.3441 342.21 90.6121 342.21 90.1241C342.21 89.6971 341.783 89.1481 341.295 88.9651C340.807 88.7211 340.38 88.2331 340.38 87.7451C340.38 87.2571 340.136 86.8911 339.77 86.8911C339.465 86.8911 339.16 86.5861 339.16 86.2811C339.16 85.6711 336.903 82.1331 336.049 81.4011C335.866 81.2181 335.378 80.1811 334.951 79.0831C334.463 78.0461 333.853 77.1311 333.548 77.1311C333.243 77.1311 332.877 76.7041 332.633 76.1551C332.45 75.6061 331.474 74.3251 330.559 73.2881C329.583 72.2511 328.79 71.1531 328.79 70.9091C328.79 70.1771 326.838 67.8591 320.738 61.2101C320.128 60.6001 319.64 59.8681 319.64 59.5631C319.64 59.3191 316.895 56.5131 313.54 53.3411C310.124 50.1691 305.915 46.1431 304.085 44.3741C302.255 42.6661 299.876 40.5921 298.778 39.8601C297.68 39.0671 296.643 38.2741 296.46 38.0911C295.545 37.0541 290.97 33.8211 290.421 33.8211C290.055 33.8211 289.75 33.5161 289.75 33.2111C289.75 32.8451 289.445 32.6011 289.079 32.6011C288.713 32.6011 288.103 32.2351 287.676 31.8081C287.188 31.4421 286.212 30.6491 285.48 30.1611C284.748 29.6731 283.772 28.9411 283.406 28.5751C282.979 28.2091 282.064 27.6601 281.332 27.4771C280.6 27.2331 279.99 26.8061 279.99 26.5621C279.99 26.3181 278.831 25.6471 277.428 24.9761C275.964 24.3661 274.561 23.5121 274.317 23.0241C274.073 22.5971 273.28 22.2311 272.67 22.2311C271.999 22.2311 270.108 21.3771 268.522 20.4011C266.875 19.3641 265.228 18.5711 264.801 18.5711C264.435 18.5711 264.13 18.3271 264.13 18.0221C264.13 17.7171 263.337 17.2901 262.361 17.0461C261.385 16.8631 260.226 16.3141 259.86 15.8261C259.494 15.3381 257.176 14.2401 254.797 13.3251C252.357 12.4101 250.283 11.4951 250.1 11.2511C249.917 11.0071 248.209 10.6411 246.257 10.3971C244.366 10.1531 242.902 9.72611 243.085 9.42111C243.39 8.99411 240.523 8.20111 238.388 8.14011C237.778 8.14011 237.29 7.89611 237.29 7.53011C237.29 7.22511 236.802 6.98111 236.192 6.98111C235.582 6.98111 234.85 6.79811 234.606 6.49311C234.362 6.24911 233.935 6.06611 233.752 6.00511C231.617 5.82211 227.774 4.90711 227.53 4.54111C227.347 4.23611 225.578 3.80911 223.565 3.62611C221.552 3.38211 219.783 3.01611 219.6 2.77211C219.173 2.22311 218.075 2.04011 213.378 1.67411C211.06 1.49111 209.23 1.12511 209.23 0.820114C209.23 0.576114 208.742 0.332114 208.193 0.271114C204.655 0.027114 163.785 -0.094886 161.04 0.088114ZM193.004 16.6191C193.187 16.9241 196.298 17.3511 199.897 17.5951C208.01 18.0831 209.108 18.2051 209.596 18.7541C209.84 18.9981 211.06 19.1811 212.341 19.1811C213.622 19.1811 214.781 19.4251 215.025 19.7301C215.208 20.0961 215.818 20.3401 216.428 20.3401C218.075 20.3401 222.772 21.3771 224.602 22.1091C225.456 22.4751 227.591 22.8411 229.299 22.9021C230.946 22.9631 232.227 23.2681 232.044 23.5731C231.861 23.8171 232.349 24.0611 233.02 24.0611C233.752 24.0611 235.216 24.4271 236.253 24.9151C238.693 25.9521 240.523 26.6841 241.072 26.7451C241.255 26.8061 241.682 26.9891 241.926 27.2331C242.17 27.5381 242.902 27.7211 243.512 27.7211C244.122 27.7211 244.61 27.9651 244.61 28.3311C244.61 28.6361 244.793 28.8801 245.098 28.8191C245.342 28.7581 246.806 29.3071 248.392 30.0391C249.978 30.7711 251.686 31.3811 252.174 31.3811C252.723 31.3811 253.15 31.6251 253.15 31.9911C253.15 32.2961 253.699 32.6011 254.309 32.6011C254.98 32.6011 255.895 32.9671 256.322 33.3331C257.481 34.3701 264.862 38.1521 265.716 38.0911C266.143 38.0911 266.57 38.5181 266.814 39.0061C266.997 39.4941 267.607 39.9211 268.095 39.9211C269.071 39.9211 272.182 41.9341 275.11 44.5571C275.964 45.2891 277.306 46.0821 278.099 46.3261C279.624 46.8141 280.295 47.2411 282.735 49.4981C283.528 50.2911 284.321 50.9011 284.504 50.9011C284.626 50.9011 285.724 51.8771 286.883 53.0361C288.042 54.1951 289.445 55.1711 290.055 55.1711C290.604 55.1711 290.909 55.4151 290.726 55.6591C290.421 56.2081 292.434 58.2211 293.349 58.2211C293.654 58.2211 294.02 58.6481 294.264 59.1361C294.447 59.6241 294.996 60.0511 295.545 60.0511C296.033 60.0511 296.46 60.2341 296.46 60.5391C296.46 60.7831 297.314 61.8811 298.29 62.9791C299.327 64.0771 300.12 64.8701 300.12 64.7481C300.12 64.5651 301.096 65.4191 302.255 66.5781C303.414 67.7371 304.39 68.9571 304.39 69.2011C304.39 69.4451 305.061 70.1161 305.854 70.6651C306.708 71.1531 307.501 72.1901 307.745 72.8611C307.928 73.5321 308.538 74.0811 309.026 74.0811C309.514 74.0811 309.88 74.3861 309.88 74.7521C309.88 75.1181 310.246 75.7891 310.673 76.2771C311.039 76.7651 312.015 77.8631 312.808 78.8391C313.54 79.7541 315.126 81.5841 316.285 82.9261C317.444 84.2681 318.42 85.5491 318.42 85.7931C318.42 86.0371 319.091 86.9521 319.945 87.8671C320.799 88.7821 321.47 90.0021 321.47 90.6121C321.47 91.2221 321.836 91.9541 322.263 92.1981C322.69 92.4421 323.544 93.7231 324.215 94.9431C324.886 96.2241 325.618 97.2611 325.862 97.2611C326.167 97.2611 326.35 97.5661 326.35 97.9931C326.35 98.3591 327.875 101.104 329.705 104.154C331.535 107.143 333.06 110.071 333.06 110.742C333.06 111.352 333.426 112.084 333.914 112.328C334.402 112.572 334.89 113.731 335.073 114.89C335.256 115.988 335.683 117.208 336.049 117.574C336.415 117.94 336.72 118.611 336.72 119.099C336.72 119.526 337.147 120.319 337.635 120.807C338.123 121.356 338.55 122.393 338.55 123.186C338.55 123.979 338.855 124.833 339.16 125.016C339.526 125.26 339.648 125.626 339.465 125.931C339.282 126.236 339.404 126.602 339.77 126.846C340.075 127.029 340.38 127.883 340.38 128.737C340.38 129.53 340.624 130.201 340.929 130.201C341.234 130.201 341.661 131.421 341.905 132.946C342.088 134.471 342.576 135.569 342.881 135.325C343.186 135.142 343.43 135.203 343.369 135.508C343.186 136.301 344.162 140.815 344.65 141.486C345.077 142.035 345.565 144.719 346.175 150.209C346.419 152.405 346.724 153.564 347.212 154.357C347.456 154.662 347.761 157.285 347.944 160.152C348.127 162.958 348.432 165.947 348.615 166.801C349.042 168.692 349.103 197.728 348.676 198.399C348.493 198.704 348.188 201.632 348.005 204.926C347.822 208.22 347.273 211.636 346.785 212.612C346.297 213.527 345.87 215.357 345.87 216.699C345.87 219.2 343.735 228.655 342.82 230.363C342.515 230.912 342.027 232.498 341.844 233.901C341.6 235.243 341.234 236.341 340.99 236.341C340.746 236.341 340.38 236.829 340.197 237.378C340.014 237.988 339.343 239.94 338.672 241.709C337.269 245.369 337.208 245.43 336.842 246.833C336.72 247.443 336.293 247.931 335.988 247.931C335.683 247.931 335.561 248.175 335.805 248.48C335.988 248.785 335.866 249.212 335.5 249.456C335.195 249.639 334.89 250.615 334.89 251.652C334.89 252.811 334.585 253.421 333.975 253.421C333.365 253.421 333.06 254.031 333.06 255.251C333.06 256.227 332.816 257.081 332.45 257.081C332.145 257.081 331.84 257.508 331.84 257.996C331.84 258.484 331.596 258.911 331.291 258.911C330.986 258.911 330.498 259.521 330.254 260.253C330.01 261.046 329.644 261.778 329.4 261.961C329.156 262.144 328.241 263.852 327.326 265.743C326.411 267.695 325.435 269.281 325.191 269.281C324.947 269.281 323.849 271.05 322.69 273.246C321.531 275.442 320.433 277.211 320.128 277.211C319.884 277.211 319.64 277.516 319.64 277.882C319.64 278.309 318.969 279.224 318.115 280.017C317.261 280.81 316.59 281.725 316.59 282.091C316.59 282.396 316.346 282.701 315.98 282.701C315.675 282.701 315.37 282.945 315.37 283.311C315.37 283.616 314.882 284.47 314.333 285.08C311.771 287.825 309.88 290.082 309.88 290.326C309.88 290.448 309.27 291.241 308.538 292.034C307.745 292.827 304.695 296.121 301.645 299.354C298.656 302.587 295.911 305.271 295.667 305.271C295.362 305.271 294.386 306.003 293.532 306.918C292.617 307.894 290.726 309.541 289.323 310.639C286.761 312.713 285.236 313.994 282.43 316.495C280.844 317.898 278.77 318.935 278.038 318.813C277.733 318.752 277.55 319.118 277.55 319.606C277.55 320.094 277.123 320.521 276.574 320.521C275.72 320.521 271.389 323.388 268.888 325.645C268.278 326.194 267.119 326.743 266.265 326.987C265.411 327.17 264.74 327.597 264.74 327.902C264.74 328.207 264.435 328.451 264.008 328.451C262.849 328.451 258.03 330.952 258.03 331.562C258.03 331.867 257.481 332.111 256.871 332.111C256.2 332.111 254.919 332.477 253.943 332.965C248.087 335.954 244.61 337.479 242.353 338.211C240.889 338.638 239.73 339.248 239.73 339.553C239.73 339.858 239.364 340.041 238.998 339.98C237.534 339.797 234.24 340.773 234.606 341.322C234.789 341.627 234.179 341.871 233.203 341.871C232.288 341.871 230.702 342.298 229.726 342.786C228.811 343.274 226.92 343.701 225.578 343.701C224.236 343.701 222.772 344.128 222.284 344.616C221.674 345.226 220.149 345.531 218.136 345.531C216.367 345.531 214.72 345.714 214.476 346.019C213.988 346.507 213.439 346.568 206.973 347.117C204.533 347.3 202.642 347.727 202.825 347.971C203.191 348.581 197.091 348.886 183.305 348.886C170.373 348.886 164.09 348.581 164.09 347.971C164.09 347.727 162.565 347.483 160.674 347.422C158.844 347.361 156.587 347.056 155.733 346.69C154.94 346.385 154.025 346.263 153.72 346.446C153.415 346.629 153.049 346.507 152.805 346.141C152.622 345.836 150.792 345.531 148.84 345.531C146.461 345.531 144.936 345.226 144.326 344.616C143.777 344.067 142.252 343.701 140.361 343.701C138.653 343.701 137.25 343.457 137.25 343.152C137.25 342.847 136.274 342.42 135.115 342.237C133.59 341.932 132.98 341.505 132.98 340.712C132.98 340.041 133.407 339.431 133.895 339.187C134.383 339.004 134.81 338.15 134.81 337.296C134.81 336.442 135.054 335.771 135.298 335.771C135.603 335.771 135.847 335.405 135.908 334.978C136.213 332.477 136.823 330.281 137.25 330.281C137.555 330.281 137.921 329.427 138.165 328.451C138.409 327.414 138.836 326.743 139.141 326.987C139.446 327.17 139.69 326.865 139.69 326.377C139.69 325.889 140.544 323.876 141.52 321.924C142.496 320.033 143.35 318.081 143.35 317.715C143.35 317.288 143.594 316.861 143.838 316.739C144.082 316.617 145.241 314.604 146.339 312.286C150.243 303.99 153.781 297.402 155.062 295.877C155.672 295.206 156.282 294.169 156.526 293.559C156.709 292.949 157.136 292.461 157.441 292.461C157.746 292.461 157.99 292.095 157.99 291.607C157.99 291.18 158.417 290.448 158.905 290.021C159.393 289.594 159.637 289.045 159.454 288.74C159.271 288.435 159.454 288.191 159.759 288.191C160.125 288.191 160.43 287.52 160.43 286.666C160.43 285.812 160.735 285.141 161.04 285.141C161.406 285.141 161.955 284.47 162.26 283.616C162.565 282.762 163.297 281.908 163.785 281.725C164.273 281.481 164.7 280.993 164.7 280.505C164.7 280.017 164.944 279.651 165.249 279.651C165.554 279.651 166.53 278.431 167.384 276.906C168.299 275.381 169.275 274.161 169.58 274.161C169.885 274.161 170.312 273.551 170.556 272.758C170.8 272.026 172.386 269.952 174.094 268.183C180.438 261.595 182.878 259.216 184.525 257.996C185.501 257.325 186.599 256.41 187.026 255.983C187.453 255.617 188.063 255.251 188.429 255.251C188.795 255.251 189.1 255.007 189.1 254.702C189.1 254.092 193.37 251.896 194.163 252.079C194.407 252.14 194.59 251.957 194.59 251.652C194.59 251.103 197.701 250.127 198.616 250.371C198.86 250.432 199.226 250.127 199.531 249.639C200.324 248.419 212.951 248.724 214.842 250.005C215.574 250.554 216.733 250.981 217.343 250.981C217.953 250.981 219.234 251.53 220.21 252.201C221.125 252.872 222.04 253.238 222.284 252.994C222.467 252.811 222.65 252.933 222.65 253.299C222.65 253.726 223.077 254.031 223.565 254.031C224.053 254.031 224.48 254.275 224.48 254.641C224.48 254.946 224.907 255.251 225.395 255.251C225.883 255.251 226.31 255.495 226.31 255.8C226.31 256.41 228.201 257.63 231.373 259.033C232.288 259.46 233.02 260.009 233.02 260.253C233.02 260.497 233.386 260.741 233.874 260.741C234.362 260.741 234.911 261.168 235.094 261.717C235.277 262.205 235.704 262.51 236.009 262.327C236.314 262.144 237.473 262.754 238.571 263.73C239.669 264.706 240.828 265.377 241.072 265.255C241.316 265.072 241.56 265.255 241.56 265.56C241.56 265.926 242.109 266.231 242.719 266.231C243.39 266.231 244.122 266.536 244.305 266.841C244.549 267.207 244.976 267.329 245.281 267.085C245.586 266.902 246.257 267.024 246.684 267.39C247.111 267.756 248.209 268.122 249.124 268.183C249.978 268.244 250.71 268.488 250.71 268.671C250.71 269.159 256.017 269.037 256.566 268.488C256.81 268.244 257.725 268.061 258.579 268.061C260.47 268.061 269.01 262.693 269.01 261.534C269.01 261.107 269.254 260.741 269.559 260.741C270.84 260.741 274.5 256.776 274.5 255.434C274.5 254.641 274.744 254.092 275.049 254.275C275.293 254.458 275.72 253.36 275.964 251.774C276.391 248.541 275.781 241.221 275.11 241.221C274.866 241.221 274.439 240.245 274.256 239.086C274.012 237.927 273.585 236.951 273.341 236.951C272.67 236.951 271.45 233.535 271.877 233.047C272.121 232.864 271.938 232.681 271.572 232.681C271.145 232.681 270.84 232.01 270.84 231.156C270.84 230.302 270.657 229.631 270.413 229.631C270.108 229.631 269.254 228.106 268.461 226.276C267.607 224.446 266.753 222.921 266.509 222.921C266.265 222.921 265.899 222.067 265.655 221.091C265.411 220.054 264.984 219.261 264.679 219.261C264.374 219.261 264.13 218.895 264.13 218.407C264.13 217.614 262.361 213.832 261.69 213.161C261.507 212.978 261.263 212.307 261.202 211.636C261.08 210.965 260.592 210.172 260.104 209.928C259.616 209.684 259.25 208.891 259.25 208.22C259.25 207.488 258.762 206.207 258.152 205.353C257.542 204.438 256.566 202.73 255.956 201.571C254.187 197.972 253.333 196.691 251.93 195.044C251.198 194.19 250.283 192.543 249.978 191.384C249.673 190.164 249.185 189.493 248.758 189.737C248.331 189.981 248.27 189.92 248.514 189.493C248.758 189.127 248.392 188.273 247.66 187.541C246.989 186.87 246.44 186.016 246.44 185.65C246.44 184.857 244.244 181.563 242.658 180.038C242.048 179.428 241.56 178.574 241.56 178.086C241.56 177.598 241.316 177.171 240.95 177.171C240.645 177.171 240.34 176.744 240.34 176.256C240.34 175.768 239.913 175.341 239.425 175.341C238.937 175.341 238.51 174.914 238.51 174.426C238.51 173.938 237.717 172.596 236.68 171.498C235.704 170.339 234.85 169.119 234.85 168.753C234.85 168.448 234.423 168.021 233.935 167.777C233.447 167.594 233.02 167.106 233.02 166.618C233.02 166.191 230.397 163.08 227.225 159.786C224.053 156.492 221.43 153.442 221.43 153.015C221.43 152.527 221.003 152.161 220.515 152.161C220.027 152.161 219.6 151.795 219.6 151.368C219.6 151.002 218.746 150.148 217.77 149.599C216.733 149.05 215.94 148.135 215.94 147.647C215.94 147.159 215.33 146.549 214.659 146.366C213.195 145.878 209.84 142.706 209.84 141.791C209.84 141.425 209.413 141.181 208.925 141.181C208.437 141.181 208.01 140.754 208.01 140.266C208.01 139.778 207.583 139.351 207.095 139.351C206.607 139.351 206.18 139.107 206.18 138.863C206.18 138.558 205.509 137.948 204.655 137.521C203.801 137.094 203.13 136.362 203.13 135.935C203.13 135.447 202.398 134.898 201.544 134.715C200.69 134.471 198.616 133.007 196.908 131.36C195.2 129.713 193.309 128.249 192.699 128.066C192.028 127.822 191.54 127.456 191.54 127.151C191.54 126.846 189.771 125.565 187.575 124.284C185.379 123.064 183.61 121.783 183.61 121.539C183.61 121.295 183.366 121.051 183.061 121.051C182.695 121.051 180.682 119.831 178.486 118.306C176.229 116.781 174.155 115.561 173.85 115.561C173.484 115.561 173.24 115.256 173.24 114.951C173.24 114.585 172.874 114.341 172.447 114.341C171.959 114.341 170.8 113.67 169.824 112.816C168.848 111.962 167.75 111.291 167.384 111.291C167.018 111.291 166.347 110.864 165.92 110.376C165.493 109.888 164.639 109.461 164.029 109.461C163.48 109.461 162.565 109.034 162.016 108.546C161.528 108.058 160.918 107.631 160.674 107.631C160.125 107.631 154.147 103.91 153.72 103.3C153.537 103.056 152.622 102.629 151.707 102.446C150.792 102.202 150.06 101.775 150.06 101.47C150.06 101.165 149.694 100.921 149.206 100.921C148.779 100.921 148.047 100.555 147.681 100.067C147.254 99.5791 146.278 99.0301 145.424 98.8471C144.631 98.6031 143.35 97.8711 142.679 97.2001C142.008 96.5291 141.215 96.1631 140.91 96.3461C140.605 96.5291 139.751 96.2241 139.141 95.6141C138.47 95.0041 136.64 93.8451 134.993 92.9911C133.407 92.1371 131.943 91.3441 131.76 91.1611C130.906 90.2461 128.039 88.7211 127.185 88.7211C126.636 88.7211 126.087 88.2941 125.904 87.8061C125.66 87.3181 124.867 86.8911 124.074 86.8911C123.281 86.8911 122.61 86.7081 122.61 86.4031C122.61 86.1591 121.207 85.3051 119.56 84.5121C117.852 83.7191 115.778 82.4381 114.924 81.6451C114.07 80.8521 112.972 80.1811 112.484 80.1811C112.057 80.1811 111.63 79.8761 111.63 79.5711C111.63 79.2051 111.264 78.9611 110.776 78.9611C110.288 78.9611 109.495 78.5341 108.946 78.0461C108.458 77.4971 107.055 76.7041 105.835 76.1551C104.615 75.6671 103.517 74.8741 103.273 74.3861C103.09 73.8981 102.419 73.4711 101.809 73.4711C101.199 73.4711 100.65 73.2271 100.65 72.9221C100.65 72.3121 98.332 70.8481 96.258 70.0551C95.648 69.8721 95.16 69.4451 95.16 69.1401C95.16 68.8351 94.733 68.5911 94.245 68.5911C93.757 68.5911 93.33 68.3471 93.33 68.0421C93.33 67.7371 92.781 67.2491 92.049 67.0661C90.829 66.6391 88.206 64.5651 86.132 62.3081C85.583 61.7591 84.912 61.2711 84.607 61.2711C84.302 61.2711 82.594 59.8071 80.825 57.9771L77.531 54.6831L80.032 52.6701C81.374 51.5111 83.448 49.6811 84.668 48.6441C85.949 47.5461 87.413 46.6311 87.962 46.6311C88.511 46.6311 89.365 46.2651 89.792 45.8381C90.219 45.4111 91.561 44.4961 92.72 43.7641C93.879 43.0321 95.404 41.9341 96.075 41.3241C96.746 40.7141 98.515 39.5551 100.04 38.7621C101.565 37.9081 102.907 37.1151 103.09 36.8711C103.273 36.6881 104.798 36.0171 106.445 35.4071C108.153 34.7971 109.922 33.8821 110.471 33.4551C110.959 32.9671 111.996 32.6011 112.728 32.6011C113.46 32.6011 114.07 32.3571 114.07 32.0521C114.07 31.7471 114.924 31.3201 115.9 31.0761C116.937 30.8321 117.73 30.4051 117.73 30.1001C117.73 29.7951 118.096 29.5511 118.584 29.5511C119.072 29.5511 121.268 28.6971 123.525 27.7211C125.782 26.6841 127.978 25.8911 128.466 25.8911C128.954 25.8911 129.32 25.6471 129.32 25.3421C129.32 25.0371 130.54 24.6101 132.065 24.4271C133.59 24.1831 134.81 23.7561 134.81 23.3901C134.81 23.0851 136.091 22.8411 137.738 22.8411C139.324 22.8411 141.276 22.4751 142.191 22.0481C143.045 21.5601 145.302 21.0111 147.193 20.8281C149.084 20.5841 151.28 20.1571 152.012 19.8521C155.184 18.6321 163.114 17.4731 169.763 17.2901C172.325 17.2291 174.46 16.9241 174.46 16.6801C174.46 15.9481 192.577 15.9481 193.004 16.6191ZM59.78 73.9591C59.78 74.2641 60.878 75.6671 62.22 77.1921C63.562 78.6561 64.66 80.0591 64.66 80.3031C64.66 80.6081 65.087 80.7911 65.575 80.7911C66.063 80.7911 66.49 81.2181 66.49 81.7061C66.49 82.1941 66.734 82.6211 67.1 82.6211C67.405 82.6211 68.32 83.2311 69.113 83.9631C71.126 85.9151 73.383 87.5011 73.932 87.5011C74.176 87.5011 74.42 87.9281 74.42 88.4161C74.42 88.9041 74.664 89.3311 74.969 89.3311C75.518 89.3311 76.006 89.6971 80.825 93.9061C82.167 95.0651 83.753 96.0411 84.363 96.0411C84.912 96.0411 85.4 96.4071 85.4 96.8341C85.4 97.2611 86.376 97.9931 87.535 98.4811C88.694 98.9691 89.67 99.6401 89.67 99.9451C89.67 100.311 90.768 101.165 92.11 101.775C93.452 102.446 94.55 103.178 94.55 103.483C94.55 103.727 94.977 103.971 95.465 103.971C95.892 103.971 96.563 104.337 96.807 104.703C97.234 105.435 100.894 107.631 104.127 109.156C104.92 109.461 105.53 110.132 105.53 110.498C105.53 110.925 106.201 111.291 107.055 111.291C107.909 111.291 108.58 111.535 108.58 111.779C108.58 112.023 109.312 112.572 110.288 112.999C111.203 113.426 113.582 114.829 115.595 116.171C117.608 117.513 120.536 119.282 122.183 120.136C123.769 120.99 125.05 121.966 125.05 122.271C125.05 122.637 125.538 122.881 126.209 122.881C126.819 122.881 127.673 123.308 128.1 123.796C128.527 124.284 129.259 124.711 129.686 124.711C130.174 124.711 130.54 124.955 130.54 125.321C130.54 125.626 130.906 125.931 131.333 125.931C131.821 125.931 132.675 126.48 133.285 127.151C133.895 127.822 134.627 128.371 134.932 128.371C135.481 128.371 136.213 128.859 139.019 131.421C139.934 132.275 141.337 133.373 142.069 133.861C142.862 134.349 144.021 135.264 144.692 135.813C145.424 136.423 146.339 136.911 146.827 136.911C147.254 136.911 147.62 137.338 147.62 137.826C147.62 138.314 147.986 138.741 148.413 138.741C148.779 138.741 150.609 140.266 152.439 142.096C154.208 143.926 156.099 145.451 156.587 145.451C157.075 145.451 157.319 145.695 157.136 145.939C157.014 146.183 158.6 148.013 160.796 150.026C162.931 151.978 164.7 153.808 164.7 154.113C164.7 154.662 166.957 157.041 167.445 157.041C167.994 157.041 170.19 159.481 170.19 160.091C170.19 160.396 170.495 160.701 170.8 160.701C171.166 160.701 171.715 161.372 172.02 162.226C172.325 163.08 172.874 163.751 173.24 163.751C173.545 163.751 173.85 164.117 173.85 164.483C173.85 164.91 174.826 166.374 175.985 167.716C177.144 169.058 178.669 170.827 179.34 171.559C180.011 172.352 180.56 173.389 180.56 173.877C180.56 174.365 180.804 174.731 181.17 174.731C181.475 174.731 181.902 175.402 182.146 176.256C182.329 177.11 182.756 177.781 183.061 177.781C183.366 177.781 183.61 178.147 183.61 178.635C183.61 179.123 183.854 179.611 184.098 179.733C184.708 179.977 187.27 184.369 187.27 185.223C187.27 185.589 187.758 186.26 188.368 186.687C189.344 187.48 189.344 187.48 188.368 187.541C187.758 187.541 187.27 187.785 187.27 188.09C187.27 188.395 185.745 188.883 183.915 189.066C182.085 189.31 180.56 189.737 180.56 189.981C180.56 190.225 179.157 190.591 177.388 190.774C175.68 191.018 174.094 191.445 173.911 191.75C173.728 191.994 172.325 192.482 170.8 192.726C169.275 192.97 167.75 193.397 167.445 193.702C167.079 193.946 165.493 194.251 163.907 194.312C162.016 194.434 161.04 194.739 161.04 195.288C161.04 195.837 160.125 196.081 158.051 196.081C156.404 196.081 154.94 196.325 154.818 196.63C154.757 196.935 153.537 197.362 152.195 197.545C150.853 197.789 148.352 198.46 146.644 199.131C144.875 199.741 143.289 200.107 143.106 199.924C142.923 199.68 142.74 199.802 142.74 200.107C142.74 200.412 142.008 200.778 141.154 200.839C140.239 200.9 139.08 201.327 138.592 201.754C138.104 202.12 137.494 202.425 137.311 202.364C136.762 202.181 133.956 202.913 133.285 203.401C132.98 203.706 131.394 204.072 129.808 204.316C128.222 204.56 127.002 204.987 127.185 205.231C127.368 205.475 126.27 205.902 124.745 206.085C123.22 206.329 122 206.756 122 207.122C122 207.427 120.78 207.671 119.316 207.671C117.486 207.671 116.51 207.976 116.266 208.586C116.022 209.196 115.046 209.501 113.216 209.501C111.752 209.501 110.41 209.806 110.288 210.172C110.166 210.477 108.946 210.965 107.482 211.148C106.079 211.331 104.92 211.758 104.92 212.002C104.92 212.307 104.554 212.551 104.066 212.551C103.578 212.551 102.419 212.856 101.443 213.283C99.308 214.137 99.552 214.076 96.807 214.625C95.587 214.93 94.367 215.357 94.184 215.662C94.001 215.967 93.208 216.211 92.476 216.211C91.683 216.211 90.707 216.638 90.28 217.126C89.853 217.614 88.938 218.041 88.145 218.041C87.413 218.041 86.62 218.224 86.376 218.468C86.132 218.773 85.705 218.956 85.522 219.017C83.143 219.383 81.13 220.115 81.13 220.542C81.13 220.847 80.154 221.091 78.995 221.091C77.897 221.091 76.677 221.457 76.433 221.945C76.189 222.433 74.725 222.921 73.2 223.104C70.272 223.409 61.549 226.398 60.939 227.374C60.756 227.679 60.329 227.862 60.024 227.862C58.804 227.74 55.51 228.594 55.51 229.021C55.51 229.265 54.595 229.692 53.436 229.875C52.277 230.119 51.24 230.546 51.118 230.851C50.996 231.156 49.593 231.644 47.885 231.827C46.238 232.071 44.591 232.559 44.225 232.986C43.92 233.352 42.822 233.901 41.785 234.145C39.833 234.572 38.308 234.938 37.82 235.121C37.637 235.182 37.332 235.243 37.088 235.182C36.783 235.182 36.6 235.365 36.6 235.731C36.6 236.036 36.112 236.341 35.563 236.341C34.953 236.341 33.733 236.707 32.818 237.195C31.964 237.683 30.134 238.232 28.853 238.415C26.596 238.842 26.535 238.781 25.498 236.219C24.949 234.755 24.278 232.193 24.034 230.546C23.79 228.838 23.424 227.374 23.18 227.191C22.875 227.008 22.509 225.361 22.265 223.531C22.021 221.701 21.655 219.871 21.35 219.566C21.106 219.2 20.679 217.614 20.496 216.028C20.252 214.381 19.886 212.429 19.703 211.758C19.52 211.026 19.276 209.318 19.093 207.976C18.971 206.634 18.666 205.109 18.483 204.621C17.446 201.51 16.958 171.498 17.934 164.971C18.178 163.141 18.544 160.213 18.727 158.566C18.91 156.858 19.276 155.211 19.52 154.906C19.764 154.54 20.191 152.344 20.435 150.026C20.679 147.647 21.045 145.451 21.35 145.146C21.655 144.78 22.021 143.438 22.265 142.096C22.509 140.754 22.936 139.351 23.241 139.046C23.485 138.68 23.912 136.911 24.095 135.081C24.339 133.251 24.705 131.177 25.01 130.506C25.498 129.347 26.291 127.212 26.535 126.541C26.596 126.358 26.84 125.504 27.084 124.528C27.389 123.613 27.816 122.881 28.121 122.881C28.426 122.881 28.67 122.454 28.67 121.966C28.67 121.478 29.219 120.014 29.89 118.794C30.561 117.513 31.11 116.171 31.11 115.805C31.11 115.378 32.208 113.182 33.55 110.925C34.892 108.607 35.99 106.35 35.99 105.923C35.99 104.947 37.881 101.348 38.613 101.043C38.857 100.921 39.04 100.555 39.04 100.189C39.04 99.3351 42.944 93.0521 44.835 90.9171C45.689 89.9411 46.36 88.7821 46.36 88.2941C46.36 87.8671 46.665 87.5011 46.97 87.5011C47.336 87.5011 47.58 87.0741 47.58 86.5861C47.58 86.0371 48.007 85.4881 48.495 85.3051C48.983 85.0611 49.41 84.5121 49.41 84.0851C49.41 83.5971 49.837 83.0481 50.325 82.8651C50.813 82.6211 51.24 82.2551 51.24 82.0111C51.24 81.7061 52.338 80.3031 53.68 78.9001C55.022 77.4361 56.12 76.0941 56.12 75.8501C56.12 75.6061 56.547 74.9351 57.096 74.4471C58.072 73.4101 59.78 73.1051 59.78 73.9591ZM173.118 136.057C174.704 136.362 176.29 137.155 176.29 137.582C176.29 137.887 176.717 138.131 177.205 138.131C177.632 138.131 178.303 138.497 178.547 138.924C179.279 140.022 183.976 143.621 184.769 143.621C185.135 143.621 185.44 144.048 185.44 144.536C185.44 145.024 185.806 145.451 186.294 145.451C186.782 145.451 187.27 145.878 187.514 146.366C187.697 146.854 188.246 147.281 188.734 147.281C189.222 147.281 190.625 148.318 191.845 149.538C193.065 150.819 194.285 151.856 194.59 151.856C194.834 151.856 196.542 153.442 198.372 155.333C200.202 157.285 201.849 158.871 202.032 158.871C202.276 158.871 204.167 160.701 206.302 162.897C208.376 165.093 211.182 167.96 212.463 169.241C213.683 170.522 214.72 171.864 214.72 172.23C214.72 172.657 215.025 172.779 215.33 172.596C215.696 172.413 215.94 172.474 215.94 172.718C215.94 173.328 218.929 177.232 224.053 183.271C224.48 183.759 225.212 184.979 225.7 186.016C226.188 186.992 226.981 188.212 227.408 188.639C227.774 189.066 228.14 189.737 228.14 190.042C228.14 190.652 228.75 191.506 230.763 193.702C231.312 194.312 231.8 195.105 231.8 195.471C231.8 195.776 232.105 196.081 232.41 196.081C232.776 196.081 233.02 196.447 233.02 196.935C233.02 197.362 233.447 198.094 233.935 198.521C234.423 198.948 234.85 199.802 234.85 200.412C234.85 201.083 235.094 201.571 235.399 201.571C235.704 201.571 236.619 202.913 237.412 204.621C238.266 206.268 239.12 207.427 239.364 207.183C239.608 206.939 239.73 207 239.669 207.366C239.425 208.281 240.34 210.721 241.011 210.721C241.316 210.721 241.56 211.27 241.56 211.941C241.56 212.612 241.987 213.344 242.475 213.527C242.963 213.771 243.268 214.137 243.085 214.381C242.902 214.686 243.207 215.296 243.695 215.784C244.183 216.333 244.61 217.187 244.61 217.675C244.61 218.224 244.915 218.651 245.281 218.651C245.586 218.651 245.769 218.895 245.586 219.2C245.403 219.505 245.647 219.932 246.196 220.115C246.684 220.298 246.989 220.725 246.806 221.03C246.623 221.335 246.867 221.884 247.355 222.311C247.843 222.738 248.27 223.714 248.27 224.507C248.27 225.239 248.575 226.093 248.88 226.276C249.246 226.52 249.368 226.947 249.185 227.252C248.941 227.557 249.124 227.801 249.429 227.801C249.795 227.801 250.1 228.167 250.1 228.655C250.1 229.57 251.93 233.352 252.601 233.901C252.845 234.084 253.211 234.877 253.455 235.731C253.699 236.585 254.065 237.378 254.309 237.561C254.858 238.049 256.81 241.831 256.81 242.563C256.81 242.868 257.237 243.539 257.725 244.027C259.067 245.43 258.823 247.321 257.054 248.968C254.797 251.042 252.662 251.286 249.795 249.761C248.514 249.09 247.05 248.541 246.623 248.541C246.196 248.541 245.83 248.236 245.83 247.931C245.83 247.565 245.464 247.321 244.976 247.321C244.488 247.321 244 246.894 243.756 246.406C243.573 245.918 242.841 245.491 242.17 245.491C241.499 245.491 240.767 245.064 240.584 244.576C240.34 244.088 239.913 243.661 239.486 243.661C239.12 243.661 238.083 242.99 237.168 242.136C236.253 241.282 235.338 240.611 235.155 240.611C234.667 240.611 230.946 237.927 230.702 237.378C230.58 237.134 230.092 236.951 229.665 236.951C229.238 236.951 227.469 236.28 225.822 235.426C224.114 234.572 222.284 233.901 221.613 233.901C221.003 233.901 219.844 233.474 219.051 232.925C216.794 231.278 195.444 231.339 193.37 232.986C192.882 233.352 191.235 234.084 189.71 234.511C188.185 234.999 186.843 235.548 186.66 235.731C186.477 235.914 184.891 236.768 183.183 237.561C181.414 238.415 179.95 239.269 179.95 239.513C179.95 239.757 179.218 240.367 178.303 240.855C177.327 241.343 175.863 242.441 174.948 243.295C174.033 244.149 172.996 244.881 172.691 244.881C172.386 244.881 171.898 245.43 171.715 246.101C171.532 246.772 170.983 247.321 170.556 247.321C169.336 247.321 162.87 253.97 162.87 255.251C162.87 255.617 162.626 255.8 162.321 255.556C161.955 255.373 161.406 255.739 161.101 256.41C160.735 257.081 160.064 257.935 159.698 258.423C159.271 258.85 158.173 260.192 157.258 261.351C156.343 262.51 154.94 264.279 154.086 265.255C153.232 266.231 152.5 267.268 152.5 267.634C152.5 267.939 151.829 268.732 150.975 269.403C150.121 270.074 149.45 271.111 149.45 271.782C149.45 272.392 149.206 272.941 148.901 272.941C148.596 272.941 148.108 273.551 147.864 274.283C147.62 275.076 146.827 276.54 146.034 277.577C145.241 278.614 144.57 279.773 144.57 280.139C144.57 280.566 144.326 280.871 144.021 280.871C143.472 280.871 139.69 286.727 139.69 287.581C139.69 287.886 139.324 288.496 138.958 288.923C137.921 289.96 136.03 294.108 136.03 295.206C136.03 295.694 135.786 296.121 135.42 296.121C135.115 296.121 134.81 296.487 134.81 296.975C134.81 297.402 134.444 298.134 133.956 298.5C133.468 298.927 132.858 300.086 132.675 301.062C132.431 302.038 132.004 302.831 131.699 302.831C131.394 302.831 131.15 303.197 131.15 303.685C131.15 304.173 130.784 304.966 130.357 305.393C129.442 306.308 128.466 308.382 128.588 309.053C128.649 309.358 128.466 309.541 128.1 309.541C127.795 309.541 127.49 309.968 127.49 310.456C127.49 310.944 127.185 311.371 126.88 311.371C126.514 311.371 126.331 311.554 126.392 311.798C126.453 312.347 125.843 314.177 125.111 315.641C124.806 316.19 124.379 317.471 124.135 318.569C123.952 319.667 123.525 320.521 123.22 320.521C122.915 320.521 122.488 321.436 122.305 322.473C122.061 323.571 121.634 324.608 121.451 324.791C120.963 325.157 118.95 329.305 118.95 329.976C118.95 330.159 118.523 330.769 118.035 331.257C117.547 331.806 117.12 332.843 117.12 333.697C117.12 334.49 116.876 335.161 116.51 335.161C116.205 335.161 115.9 334.856 115.9 334.551C115.9 334.185 115.595 333.941 115.229 333.941C114.497 333.941 111.081 332.538 108.458 331.135C107.604 330.647 106.445 330.281 105.896 330.281C105.347 330.281 104.92 330.037 104.92 329.732C104.92 329.427 104.249 329 103.395 328.817C102.541 328.573 101.87 328.146 101.87 327.841C101.87 327.475 101.504 327.231 101.016 327.231C100.528 327.231 99.735 326.865 99.308 326.438C98.027 325.218 93.391 322.351 92.72 322.351C92.415 322.351 92.11 322.107 92.11 321.802C92.11 321.497 91.317 320.948 90.28 320.582C89.304 320.277 88.45 319.667 88.45 319.301C88.45 318.935 88.206 318.813 87.84 318.996C87.535 319.179 87.23 319.057 87.23 318.752C87.23 318.386 86.986 318.081 86.62 318.081C86.315 318.081 85.278 317.349 84.241 316.373C83.265 315.458 80.398 313.079 77.775 311.066C75.213 309.053 71.614 305.942 69.784 304.234C68.015 302.465 66.246 301.001 65.88 301.001C65.575 301.001 65.27 300.757 65.27 300.391C65.27 300.086 64.538 298.988 63.623 298.012C62.647 297.036 61 295.267 59.902 294.047C58.804 292.827 57.645 291.851 57.34 291.851C56.974 291.851 56.73 291.424 56.73 290.936C56.73 290.448 56.425 290.021 55.998 290.021C55.632 290.021 55.449 289.838 55.693 289.655C55.876 289.472 55.449 288.679 54.717 287.886C52.338 285.446 50.935 283.616 51.118 283.128C51.179 282.884 50.813 282.701 50.325 282.701C49.837 282.701 49.41 282.274 49.41 281.786C49.41 281.298 49.166 280.871 48.861 280.871C48.556 280.871 48.007 280.139 47.641 279.163C47.031 277.76 45.079 274.771 39.894 267.573C39.345 266.841 38.552 265.194 38.125 263.913C37.698 262.693 37.149 261.778 36.905 261.961C36.661 262.144 35.99 260.863 35.441 259.216C34.404 256.227 34.465 256.166 35.685 255.129C36.356 254.58 37.576 253.909 38.369 253.726C39.223 253.482 40.931 252.811 42.212 252.201C43.493 251.591 45.384 250.859 46.36 250.676C47.397 250.432 48.312 250.005 48.495 249.7C48.739 249.395 49.471 249.151 50.203 249.151C50.935 249.151 52.338 248.724 53.253 248.236C54.229 247.748 55.815 247.26 56.791 247.199C57.767 247.138 58.56 246.711 58.56 246.284C58.56 245.613 61.122 245.125 63.013 245.43C63.257 245.43 63.44 245.064 63.44 244.576C63.44 243.966 64.05 243.661 65.453 243.661C66.612 243.661 68.381 243.234 69.418 242.685C70.455 242.197 71.919 241.709 72.59 241.648C73.261 241.587 73.81 241.404 73.81 241.16C73.81 240.794 77.348 239.757 78.263 239.94C78.507 239.94 78.69 239.757 78.69 239.452C78.69 239.147 79.544 238.659 80.642 238.476C82.594 237.988 83.326 237.744 85.827 236.463C86.559 236.036 88.267 235.548 89.67 235.365C91.012 235.121 92.11 234.755 92.11 234.45C92.11 234.145 92.903 233.901 93.818 233.901C94.794 233.901 96.075 233.474 96.746 232.986C97.356 232.498 98.759 232.071 99.735 232.071C100.772 232.071 102.358 231.644 103.273 231.156C104.249 230.668 105.591 230.18 106.323 230.058C107.055 229.997 108.275 229.57 109.007 229.143C109.739 228.716 110.898 228.411 111.569 228.411C112.301 228.411 112.85 228.106 112.85 227.801C112.85 227.435 113.338 227.191 113.948 227.191C114.558 227.191 116.571 226.642 118.523 225.971C120.414 225.3 122.488 224.629 123.037 224.507C123.647 224.446 124.989 224.019 125.965 223.592C127.002 223.165 128.283 222.799 128.893 222.738C129.442 222.677 129.93 222.494 129.93 222.25C129.93 222.067 131.882 221.518 134.2 221.091C136.64 220.603 138.47 219.993 138.47 219.566C138.47 219.078 139.995 218.712 142.557 218.468C144.814 218.224 146.766 217.797 146.949 217.553C147.254 217.065 149.694 216.394 152.378 216.089C152.744 216.028 153.11 215.845 153.11 215.601C153.11 215.357 154.391 214.869 156.038 214.503C157.624 214.137 160.43 213.405 162.26 212.856C164.09 212.307 166.469 211.697 167.445 211.514C168.482 211.331 169.58 210.965 169.946 210.66C170.312 210.355 172.325 209.928 174.338 209.745C176.412 209.501 178.425 208.952 178.791 208.525C179.157 208.037 180.499 207.671 181.78 207.671C183.061 207.671 184.403 207.244 184.83 206.756C185.257 206.207 186.599 205.841 188.124 205.841C189.527 205.841 192.15 205.292 193.98 204.621C195.81 203.95 197.762 203.401 198.25 203.401C200.019 203.34 204.838 199.802 205.631 197.972C206.119 196.935 206.729 196.081 206.973 196.081C207.278 196.081 207.278 195.776 207.095 195.471C206.912 195.105 207.034 194.861 207.339 194.861C207.766 194.861 208.01 193.092 208.01 190.103C207.949 186.199 207.705 184.979 206.424 182.966C205.631 181.624 204.777 180.038 204.594 179.428C204.35 178.879 203.984 178.391 203.679 178.391C203.374 178.391 203.13 178.025 203.13 177.537C203.13 177.049 202.764 176.256 202.398 175.829C201.3 174.67 200.202 172.84 199.409 171.071C199.043 170.217 198.311 169.058 197.762 168.448C197.213 167.838 196.725 166.984 196.664 166.557C196.603 166.13 195.627 164.544 194.529 163.019C193.37 161.494 192.028 159.664 191.54 158.871C191.052 158.078 190.015 156.919 189.283 156.248C188.49 155.577 187.88 154.723 187.88 154.479C187.88 154.174 187.087 153.076 186.05 151.978C185.074 150.88 184.22 149.843 184.22 149.538C184.22 149.294 182.695 147.586 180.865 145.756C179.035 143.987 177.51 142.218 177.51 141.974C177.51 141.669 175.985 140.022 174.155 138.314C172.325 136.545 170.8 134.776 170.8 134.349C170.861 133.861 171.227 134.044 171.776 134.776C172.264 135.447 172.874 136.057 173.118 136.057Z" fill="#EC4040"/>
</svg>
